<svg width="31" height="48" viewBox="0 0 31 48" fill="none" xmlns="http://www.w3.org/2000/svg">
<g clip-path="url(#clip0_369_1884)">
<path d="M7.96831e-07 16.0188C7.96831e-07 29.8076 10.5587 40.2473 14.2467 43.4736C14.9701 44.1063 16.0299 44.1063 16.7533 43.4736C20.4413 40.2473 31 29.8076 31 16.0188C31 7.1719 24.0604 0 15.5 0C6.93962 0 7.96831e-07 7.1719 7.96831e-07 16.0188Z" fill="#F28900"/>
<path d="M15.4987 26.2849C10.0118 26.2849 5.56381 21.688 5.56381 16.0174C5.56381 10.3469 10.0118 5.75 15.4987 5.75C20.9856 5.75 25.4336 10.3469 25.4336 16.0174C25.4336 21.688 20.9856 26.2849 15.4987 26.2849Z" fill="white"/>
<path d="M5.47824 44.3458C5.47824 46.3644 9.96444 48.0008 15.4989 48.0008C21.0333 48.0008 25.5195 46.3644 25.5195 44.3458C25.5195 43.004 23.5375 41.8311 20.583 41.1953C19.3182 42.5252 18.1986 43.56 17.3966 44.2621C16.8667 44.7256 16.1926 44.9806 15.4984 44.9806C14.8042 44.9806 14.1301 44.7256 13.6002 44.2621C12.7978 43.56 11.6786 42.5257 10.4138 41.1953C7.45927 41.8311 5.47728 43.004 5.47728 44.3458H5.47824Z" fill="#7A4500"/>
</g>
<defs>
<clipPath id="clip0_369_1884">
<rect width="31" height="48" fill="white" transform="matrix(-1 0 0 1 31 0)"/>
</clipPath>
</defs>
</svg>
